# AST/ASF file generated using VICON BodyLanguage
# -----------------------------------------------
:version 1.10
:name VICON
:units
  mass 1.0
  length 0.45
  angle deg
:documentation
   .ast/.asf automatically generated from VICON data using
   VICON BodyBuilder and BodyLanguage model FoxedUp or BRILLIANT.MOD
:root
   order TX TY TZ RX RY RZ
   axis XYZ
   position 0 0 0  
   orientation 0 0 0 
:bonedata
  begin
     id 1 
     name lhipjoint
     direction 0.523584 -0.783993 0.333487 
     length 2.44404 
     axis 0 0 0  XYZ
  end
  begin
     id 2 
     name lfemur
     direction 0.34202 -0.939693 0  
     length 7.29523  
     axis 0 0 20  XYZ
    dof rx ry rz
    limits (-160.0 20.0)
           (-70.0 70.0)
           (-60.0 70.0)
  end
  begin
     id 3 
     name ltibia
     direction 0.34215 -0.939645 0   
     length 7.81194   
     axis 0 0 20   XYZ
    dof rx
    limits (-10.0 170.0)
  end
  begin
     id 4 
     name lfoot
     direction 0.0941847 -0.25877 0.961336   
     length 2.41437   
     axis -90 7.62852e-016 20   XYZ
    dof rx rz
    limits (-45.0 90.0)
           (-70.0 20.0)
  end
  begin
     id 5 
     name ltoes
     direction 1.53526e-011 -4.21768e-011 1   
     length 1.2048   
     axis -90 7.62852e-016 20   XYZ
    dof rx
    limits (-90.0 20.0)
  end
  begin
     id 6 
     name rhipjoint
     direction -0.46599 -0.814191 0.346332   
     length 2.35339  
     axis 0 0 0  XYZ 
  end
  begin
     id 7 
     name rfemur
     direction -0.34202 -0.939693 0   
     length 7.34966   
     axis 0 0 -20   XYZ
    dof rx ry rz
    limits (-160.0 20.0)
           (-70.0 70.0)
           (-70.0 60.0)
  end
  begin
     id 8 
     name rtibia
     direction -0.34202 -0.939693 0   
     length 7.89934   
     axis 0 0 -20   XYZ
    dof rx
    limits (-10.0 170.0)
 end
 begin
     id 9 
     name rfoot
     direction -0.0975468 -0.268008 0.958466   
     length 2.27725  
     axis -90 -7.62852e-016 -20   XYZ
    dof rx rz
    limits (-45.0 90.0)
           (-20.0 70.0)
  end
  begin
     id 10 
     name rtoes
     direction -1.53563e-011 -4.22022e-011 1   
     length 1.13683   
     axis -90 -7.62852e-016 -20   XYZ
    dof rx
    limits (-90.0 20.0)
  end
  begin
     id 11 
     name lowerback
     direction -0.00456414 0.999242 -0.0386661   
     length 2.16968   
     axis 0 0 0   XYZ
    dof rx ry rz
    limits (-20.0 45.0)
           (-30.0 30.0)
           (-30.0 30.0)
  end
  begin
     id 12 
     name upperback
     direction 0.0297078 0.998988 0.0337799   
     length 2.15674   
     axis 0 0 0   XYZ
    dof rx ry rz
    limits (-20.0 45.0)
           (-30.0 30.0)
           (-30.0 30.0)
  end
  begin
     id 13 
     name thorax
     direction 0.0309305 0.998202 0.0513506   
     length 2.16319   
     axis 0 0 0   XYZ
    dof rx ry rz
    limits (-20.0 45.0)
           (-30.0 30.0)
           (-30.0 30.0)
  end
  begin
     id 14 
     name lowerneck
     direction -0.103039 0.983474 0.148872   
     length 1.64318   
     axis 0 0 0   XYZ
    dof rx ry rz
    limits (-20.0 45.0)
           (-30.0 30.0)
           (-30.0 30.0)
  end
  begin
     id 15 
     name upperneck
     direction 0.128124 0.971079 -0.201469   
     length 1.68242   
     axis 0 0 0   XYZ
    dof rx ry rz
    limits (-20.0 45.0)
           (-30.0 30.0)
           (-30.0 30.0)
  end
  begin
     id 16
     name head
     direction 0.0496365 0.994919 -0.0875941  
     length 1.70108  
     axis 0 0 0   XYZ
    dof rx ry rz
    limits (-20.0 45.0)
           (-30.0 30.0)
           (-30.0 30.0)
  end
  begin
     id 17 
     name lclavicle
     direction 0.887148 0.430222 -0.166967  
     length 3.25763  
     axis 0 0 0   XYZ
    dof ry rz
    limits (-20.0 10.0)
           (0.0 20.0)
  end
  begin
     id 18 
     name lhumerus
     direction 1 -4.48962e-011 1.92156e-027   
     length 5.10755   
     axis 180 -30 -90   XYZ
    dof rx ry rz
    limits (-60.0 90.0)
           (-90.0 90.0)
           (-90.0 90.0)
  end
  begin
     id 19
     name lradius
     direction 1 -4.48958e-011 7.10963e-027   
     length 3.36253   
     axis 180 -30 -90   XYZ
    dof rx
    limits (-10.0 170.0)
  end
  begin
     id 20
     name lwrist
     direction 1 -4.48946e-011 1.82396e-026   
     length 1.68127   
     axis -1.15222e-014 90 90   XYZ
    dof ry
    limits (-180.0 0.0)
 end
  begin
     id 21 
     name lhand
     direction 1 -4.48919e-011 3.64759e-026   
     length 0.619088   
     axis -2.32787e-014 90 90   XYZ
    dof rx rz
    limits (-90.0 90.0)
           (-45.0 45.0)
  end
  begin
     id 22 
     name lfingers
     direction 1 -4.49012e-011 7.29744e-026   
     length 0.499125   
     axis -4.6558e-014 90 90   XYZ
    dof rx
    limits (0.0 90.0)
  end
  begin
     id 23
     name lthumb
     direction 0.707107 -6.35028e-011 0.707107   
     length 0.716646   
     axis -90 45 3.78391e-014   XYZ
    dof rx rz
    limits (-45.0 45.0)
           (-45.0 45.0)
  end
  begin
     id 24 
     name rclavicle
     direction -0.82886 0.533198 -0.169384   
     length 3.20647  
     axis 0 0 0   XYZ 
    dof ry rz
    limits (-10.0 20.0)
           (-20.0 0.0)
  end
  begin
     id 25 
     name rhumerus
     direction -1 -4.48973e-011 3.06863e-027  
     length 5.27387   
     axis 180 30 90   XYZ
    dof rx ry rz
    limits (-90.0 60.0)
           (-90.0 90.0)
           (-90.0 90.0)
  end
  begin
     id 26 
     name rradius
     direction -1 -4.48988e-011 9.4797e-027   
     length 3.40144   
     axis 180 30 90   XYZ
    dof rx
    limits (-10.0 170.0)
  end
  begin
     id 27 
     name rwrist
     direction -1 -4.48897e-011 1.82366e-026   
     length 1.70072   
     axis -1.15222e-014 -90 -90   XYZ
    dof ry
    limits (-180.0 0.0)
  end
  begin
     id 28
     name rhand
     direction -1 -4.48965e-011 3.64815e-026   
     length 0.742821   
     axis -2.32787e-014 -90 -90   XYZ
    dof rx rz
    limits (-90.0 90.0)
           (-45.0 45.0)
  end
  begin
     id 29
     name rfingers
     direction -1 -4.49016e-011 7.29754e-026   
     length 0.598881   
     axis -4.6558e-014 -90 -90   XYZ
    dof rx
    limits (0.0 90.0)
  end
  begin
     id 30
     name rthumb
     direction -0.707107 -6.3488e-011 0.707107   
     length 0.859877   
     axis -90 -45 -3.78391e-014   XYZ
    dof rx rz
    limits (-45.0 45.0)
           (-45.0 45.0)
  end
:hierarchy
  begin
    root lhipjoint rhipjoint lowerback
    lhipjoint lfemur
    lfemur ltibia
    ltibia lfoot
    lfoot ltoes
    rhipjoint rfemur
    rfemur rtibia
    rtibia rfoot
    rfoot rtoes
    lowerback upperback
    upperback thorax
    thorax lowerneck lclavicle rclavicle
    lowerneck upperneck
    upperneck head
    lclavicle lhumerus
    lhumerus lradius
    lradius lwrist
    lwrist lhand lthumb
    lhand lfingers
    rclavicle rhumerus
    rhumerus rradius
    rradius rwrist
    rwrist rhand rthumb
    rhand rfingers
  end

#!OML:ASF F:\Work\Patient Classification 1\justin\Session 1\justin.ASF
:FULLY-SPECIFIED
:DEGREES
1478
root -1.30803 17.782 -16.6271 177.673 -179.332 -186.846
lowerback 12.3276 2.02632 2.44703
upperback 3.06408 3.10446 2.65086
thorax -3.70962 1.52287 0.91323
lowerneck -13.8412 -4.79329 -15.9612
upperneck 25.32 -5.35289 9.76109
head 11.2038 -2.83467 5.56828
rclavicle -1.99064e-014 -3.22901e-014
rhumerus -35.4352 -8.37199 -79.6368
rradius 23.0784
rwrist 7.69985
rhand -21.3771 14.7273
rfingers 7.12502
rthumb 5.01022 -15.1935
lclavicle -1.99064e-014 -3.22901e-014
lhumerus -40.31 11.4632 78.5618
lradius 34.4124
lwrist 4.13288
lhand -14.4691 27.515
lfingers 7.12502
lthumb 11.6768 57.1697
rfemur 3.29517 -0.243237 32.876
rtibia 22.4486
rfoot -19.3138 -0.963795
rtoes -4.14824
lfemur -31.738 1.46574 -7.52972
ltibia 52.7393
lfoot -6.43439 -3.04157
ltoes -19.8111
1479
root -1.31123 17.794 -16.5588 177.719 -179.235 -186.525
lowerback 12.2456 2.03948 2.23602
upperback 3.06322 3.09069 2.61411
thorax -3.67483 1.51792 0.998152
lowerneck -13.7554 -4.72211 -16.1048
upperneck 25.3163 -5.23375 9.78282
head 11.1726 -2.79364 5.61901
rclavicle 8.03991e-015 -9.33046e-015
rhumerus -35.7428 -8.25142 -79.4737
rradius 23.3413
rwrist 7.39973
rhand -21.4359 14.4781
rfingers 7.12502
rthumb 4.9535 -15.444
lclavicle 8.03991e-015 -9.33046e-015
lhumerus -40.7886 11.4996 78.6514
lradius 34.2446
lwrist 4.14361
lhand -14.3284 27.9537
lfingers 7.12502
lthumb 11.8125 57.6005
rfemur 3.70839 -0.582577 32.3911
rtibia 22.0791
rfoot -19.3492 -0.428165
rtoes -4.36098
lfemur -31.4852 1.3188 -8.07046
ltibia 51.078
lfoot -6.68633 -2.60055
ltoes -18.9508
1480
root -1.32844 17.788 -16.5235 177.919 -179.002 -186.99
lowerback 12.4887 2.10385 2.61239
upperback 2.91684 3.24739 2.8037
thorax -3.95205 1.58906 0.949021
lowerneck -13.7041 -4.72114 -16.2143
upperneck 25.3671 -5.22804 9.83001
head 11.1859 -2.79856 5.65921
rclavicle 1.09953e-015 -4.91992e-015
rhumerus -35.9199 -8.22163 -79.305
rradius 23.3262
rwrist 7.16254
rhand -21.3739 13.7724
rfingers 7.12502
rthumb 5.01331 -16.1483
lclavicle 1.09953e-015 -4.91992e-015
lhumerus -40.9289 11.8297 78.5962
lradius 33.3975
lwrist 3.6947
lhand -14.2891 28.5545
lfingers 7.12502
lthumb 11.8504 58.1992
rfemur 3.83694 -0.0694035 33.0888
rtibia 21.6706
rfoot -19.1822 -0.730547
rtoes -4.08324
lfemur -31.5693 1.46749 -7.59591
ltibia 49.355
lfoot -6.62635 -2.49118
ltoes -17.9809
1481
root -1.3283 17.7946 -16.4465 178.068 -179.017 -186.672
lowerback 12.131 2.11977 2.50678
upperback 2.94606 3.23314 2.68319
thorax -3.72408 1.58564 0.898938
lowerneck -13.5677 -4.75607 -16.2114
upperneck 25.2826 -5.30762 9.86489
head 11.1399 -2.8316 5.65796
rclavicle -5.01683e-014 -1.42628e-014
rhumerus -36.0348 -8.26645 -79.2281
rradius 23.3932
rwrist 6.88339
rhand -21.3457 13.5483
rfingers 7.12502
rthumb 5.04053 -16.3717
lclavicle -5.01683e-014 -1.42628e-014
lhumerus -40.9751 12.1732 78.4736
lradius 32.5844
lwrist 3.09768
lhand -14.132 29.1114
lfingers 7.12502
lthumb 12.0019 58.7473
rfemur 4.22769 -0.455544 32.5566
rtibia 21.1998
rfoot -19.3009 -0.0799279
rtoes -3.00569
lfemur -31.3868 1.25376 -8.18453
ltibia 47.5484
lfoot -6.88344 -2.14882
ltoes -18.0233
1482
root -1.33132 17.8 -16.3739 178.22 -178.734 -186.4
lowerback 11.8093 2.21697 2.38434
upperback 3.01493 3.32624 2.58053
thorax -3.47645 1.63549 0.861184
lowerneck -13.5301 -4.78153 -16.2058
upperneck 25.1952 -5.35385 9.88719
head 11.107 -2.84838 5.65565
rclavicle -2.06488e-014 0
rhumerus -36.2406 -8.11235 -79.2661
rradius 23.8243
rwrist 6.53417
rhand -21.4672 13.4595
rfingers 7.12502
rthumb 4.92321 -16.4633
lclavicle -2.06488e-014 0
lhumerus -41.019 12.5632 78.3554
lradius 31.9098
lwrist 2.58457
lhand -13.8942 29.6814
lfingers 7.12502
lthumb 12.2311 59.3038
rfemur 4.60747 -0.42367 32.1582
rtibia 20.755
rfoot -19.3472 0.442428
rtoes -2.09921
lfemur -31.219 1.25515 -8.65969
ltibia 45.7049
lfoot -6.99667 -1.73986
ltoes -18.2245
1483
root -1.33997 17.8017 -16.3049 178.322 -178.394 -186.361
lowerback 11.7222 2.28163 2.378
upperback 3.12425 3.40407 2.61116
thorax -3.31687 1.67596 0.891665
lowerneck -13.9584 -4.79805 -16.205
upperneck 25.2779 -5.28169 9.78842
head 11.2106 -2.81861 5.62875
rclavicle 5.20319e-014 1.87852e-014
rhumerus -36.3591 -7.70807 -79.3225
rradius 24.2465
rwrist 6.09834
rhand -21.5555 13.2867
rfingers 7.12502
rthumb 4.83802 -16.638
lclavicle 5.20319e-014 1.87852e-014
lhumerus -41.0923 13.0122 78.2932
lradius 31.3411
lwrist 2.12934
lhand -13.5936 28.9681
lfingers 7.12502
lthumb 12.5209 58.573
rfemur 5.04687 -0.207601 32.1223
rtibia 20.2558
rfoot -19.2847 0.598188
rtoes -2.10842
lfemur -30.9828 1.40281 -8.82272
ltibia 43.819
lfoot -6.99604 -1.46744
ltoes -18.4202
1484
root -1.35036 17.8024 -16.2398 178.437 -178.239 -186.347
lowerback 11.7668 2.29087 2.34504
upperback 3.12133 3.41651 2.67127
thorax -3.35004 1.68183 0.968862
lowerneck -14.2108 -4.79344 -16.1703
upperneck 25.305 -5.20055 9.6368
head 11.2543 -2.79045 5.57561
rclavicle -2.30714e-014 -1.0138e-014
rhumerus -36.5409 -7.48643 -79.2465
rradius 24.3891
rwrist 5.96773
rhand -21.601 13.5365
rfingers 7.12502
rthumb 4.79402 -16.3892
lclavicle -2.30714e-014 -1.0138e-014
lhumerus -41.3294 13.4605 78.1522
lradius 30.6671
lwrist 1.39913
lhand -13.3983 27.0334
lfingers 7.12502
lthumb 12.7092 56.6267
rfemur 5.41204 -0.123239 32.128
rtibia 19.7802
rfoot -19.1919 0.657722
rtoes -2.49024
lfemur -30.7876 1.52687 -8.98892
ltibia 41.9804
lfoot -6.971 -1.33173
ltoes -19.0161
1485
root -1.36029 17.8044 -16.177 178.627 -178.117 -186.297
lowerback 11.7976 2.35781 2.30633
upperback 2.9446 3.50846 2.66472
thorax -3.55372 1.72504 0.964744
lowerneck -13.9184 -4.78688 -16.0878
upperneck 25.227 -5.23936 9.56567
head 11.1679 -2.81278 5.52666
rclavicle -5.93869e-015 -9.93923e-017
rhumerus -36.8749 -7.54532 -79.1018
rradius 24.3791
rwrist 6.11671
rhand -21.6787 13.8221
rfingers 7.12502
rthumb 4.71906 -16.1054
lclavicle -5.93869e-015 -9.93923e-017
lhumerus -41.6855 13.648 77.9864
lradius 29.8545
lwrist 0.476061
lhand -13.637 25.2495
lfingers 7.12502
lthumb 12.4791 54.8569
rfemur 5.6697 -0.106132 32.0758
rtibia 19.3217
rfoot -19.1335 0.783542
rtoes -2.61542
lfemur -30.7199 1.57718 -9.19117
ltibia 40.1977
lfoot -7.06883 -1.26162
ltoes -19.19
1486
root -1.3719 17.8041 -16.121 178.911 -178.086 -186.339
lowerback 11.8728 2.37386 2.33483
upperback 2.78404 3.54375 2.6936
thorax -3.76311 1.73965 0.966485
lowerneck -13.9366 -4.78218 -15.9947
upperneck 25.2317 -5.22792 9.47093
head 11.166 -2.80898 5.47587
rclavicle 2.8302e-014 2.8128e-014
rhumerus -36.861 -7.40774 -79.0934
rradius 24.2365
rwrist 5.99978
rhand -21.8274 13.4698
rfingers 7.12502
rthumb 4.57541 -16.4608
lclavicle 2.8302e-014 2.8128e-014
lhumerus -41.9848 13.8583 77.901
lradius 29.2806
lwrist -0.333365
lhand -13.9004 24.9463
lfingers 7.12502
lthumb 12.2251 54.569
rfemur 5.80142 -0.178749 32.1223
rtibia 18.8525
rfoot -19.0593 0.927234
rtoes -2.47999
lfemur -30.8717 1.55558 -9.28362
ltibia 38.4972
lfoot -7.24833 -1.42018
ltoes -19.1492
1487
root -1.37801 17.8054 -16.062 179.178 -178.149 -186.275
lowerback 11.9224 2.30076 2.29312
upperback 2.66361 3.45047 2.73186
thorax -3.92095 1.69204 1.03852
lowerneck -14.0185 -4.7193 -16.0685
upperneck 25.2333 -5.10182 9.45882
head 11.166 -2.75836 5.50186
rclavicle -2.04997e-014 -1.33186e-014
rhumerus -36.8935 -7.18007 -79.0678
rradius 24.1865
rwrist 5.80736
rhand -22.0127 13.2572
rfingers 7.12502
rthumb 4.39647 -16.6772
lclavicle -2.04997e-014 -1.33186e-014
lhumerus -42.4097 14.2682 77.7965
lradius 28.9736
lwrist -1.01986
lhand -13.2203 27.7951
lfingers 7.12502
lthumb 12.8808 57.3776
rfemur 5.9988 -0.404713 31.97
rtibia 18.3657
rfoot -19.0259 1.30136
rtoes -1.78391
lfemur -30.9988 1.4871 -9.55585
ltibia 36.8724
lfoot -7.31228 -1.62894
ltoes -19.2596
1488
root -1.38979 17.8052 -15.9901 179.28 -178.002 -186.334
lowerback 11.9769 2.314 2.31166
upperback 2.50549 3.48175 2.79121
thorax -4.11934 1.70511 1.07936
lowerneck -13.6629 -4.61903 -16.1033
upperneck 25.1943 -5.01766 9.49179
head 11.069 -2.72663 5.533
rclavicle -7.20594e-016 -4.67144e-015
rhumerus -37.2797 -7.13908 -78.9727
rradius 24.2924
rwrist 5.83099
rhand -21.9925 13.372
rfingers 7.12502
rthumb 4.41599 -16.562
lclavicle -7.20594e-016 -4.67144e-015
lhumerus -43.0418 14.5601 77.5768
lradius 28.6912
lwrist -1.70045
lhand -12.6916 27.1781
lfingers 7.12502
lthumb 13.3904 56.7278
rfemur 6.42714 -0.0286638 32.1078
rtibia 17.8889
rfoot -19.0766 1.33423
rtoes -0.351967
lfemur -30.8667 1.6367 -9.63452
ltibia 35.3519
lfoot -7.30747 -1.74443
ltoes -19.4807
1489
root -1.39553 17.8061 -15.911 179.435 -178.006 -186.16
lowerback 11.8207 2.3018 2.19098
upperback 2.47211 3.44489 2.76792
thorax -4.07379 1.68879 1.13378
lowerneck -13.6471 -4.5749 -15.9786
upperneck 25.1774 -4.94942 9.34921
head 11.0417 -2.69946 5.466
rclavicle 2.73329e-016 -7.95139e-015
rhumerus -37.1766 -7.16645 -78.8862
rradius 24.06
rwrist 6.12543
rhand -21.8537 13.3485
rfingers 7.12502
rthumb 4.55006 -16.5827
lclavicle 2.73329e-016 -7.95139e-015
lhumerus -43.4554 14.6389 77.5687
lradius 28.5581
lwrist -2.16996
lhand -11.9031 27.087
lfingers 7.12502
lthumb 14.1504 56.5851
rfemur 6.77637 -0.0124766 31.8972
rtibia 17.4492
rfoot -19.1753 1.4598
rtoes 0.480342
lfemur -30.8387 1.6819 -10.0317
ltibia 33.9491
lfoot -7.73134 -1.97106
ltoes -19.7874
1490
root -1.40161 17.8037 -15.8397 179.72 -177.99 -186.087
lowerback 11.5933 2.28995 2.12346
upperback 2.53482 3.41215 2.8216
thorax -3.89005 1.67558 1.24302
lowerneck -14.0566 -4.63507 -16.0466
upperneck 25.2193 -4.93157 9.28192
head 11.1381 -2.69754 5.45381
rclavicle 3.72224e-014 1.07344e-014
rhumerus -36.7585 -7.12116 -78.7871
rradius 23.7922
rwrist 6.2852
rhand -21.7658 13.2295
rfingers 7.12502
rthumb 4.63491 -16.6998
lclavicle 3.72224e-014 1.07344e-014
lhumerus -43.5462 14.7778 77.7747
lradius 28.3189
lwrist -2.64896
lhand -11.6248 26.8808
lfingers 7.12502
lthumb 14.4186 56.36
rfemur 7.02611 -0.0523694 31.8056
rtibia 16.918
rfoot -19.0904 1.45099
rtoes 0.0697931
lfemur -31.0801 1.72418 -10.3168
ltibia 32.6698
lfoot -7.94448 -2.17398
ltoes -20.3794
1491
root -1.41383 17.7972 -15.7835 180.029 -177.915 -186.355
lowerback 11.5834 2.30435 2.31496
upperback 2.47499 3.4624 2.96064
thorax -3.94506 1.6983 1.27243
lowerneck -14.1236 -4.68588 -16.1679
upperneck 25.1838 -4.98464 9.37269
head 11.1525 -2.72064 5.50014
rclavicle -4.52235e-015 -6.95746e-015
rhumerus -36.7038 -7.03131 -78.7507
rradius 23.9603
rwrist 5.94404
rhand -21.5829 12.7484
rfingers 7.12502
rthumb 4.81148 -17.1769
lclavicle -4.52235e-015 -6.95746e-015
lhumerus -43.5902 15.1462 77.7182
lradius 27.7229
lwrist -3.60225
lhand -11.2035 26.7982
lfingers 7.12502
lthumb 14.8245 56.2479
rfemur 7.15942 0.216605 32.2152
rtibia 16.4218
rfoot -18.9145 1.12023
rtoes -1.04613
lfemur -31.4439 1.83882 -10.1875
ltibia 31.5216
lfoot -7.90621 -2.13509
ltoes -21.6623
